<?xml version="1.0" encoding="UTF-8"?>
<svg version="1.1" xmlns="http://www.w3.org/2000/svg" width="2000" height="751">
<path d="M0 0 C1.40934814 0.33789551 1.40934814 0.33789551 2.84716797 0.68261719 C42.11964044 10.36862054 79.62014984 29.62370426 111 55 C112.01191406 55.80050781 113.02382813 56.60101563 114.06640625 57.42578125 C124.37350347 65.68025598 133.8393162 74.75534271 143.1875 84.0625 C143.94305176 84.81337891 144.69860352 85.56425781 145.47705078 86.33789062 C146.17942871 87.04236328 146.88180664 87.74683594 147.60546875 88.47265625 C148.23606201 89.10437744 148.86665527 89.73609863 149.51635742 90.38696289 C151 92 151 92 152 94 C153.23302856 94.00616333 153.23302856 94.00616333 154.4909668 94.01245117 C158.22387042 94.04539243 161.95514334 94.11604104 165.6875 94.1875 C166.98107422 94.19330078 168.27464844 94.19910156 169.60742188 94.20507812 C170.85458984 94.23408203 172.10175781 94.26308594 173.38671875 94.29296875 C174.53358154 94.3086792 175.68044434 94.32438965 176.86206055 94.34057617 C182.44647966 95.51411667 185.17372344 99.95126076 188.20703125 104.4921875 C189.07473145 105.77971924 189.07473145 105.77971924 189.95996094 107.09326172 C190.87696777 108.47022217 190.87696777 108.47022217 191.8125 109.875 C193.14610084 111.85486393 194.48077176 113.83400742 195.81640625 115.8125 C196.84725342 117.34197266 196.84725342 117.34197266 197.89892578 118.90234375 C201.30504988 123.92406145 204.77640044 128.89982046 208.25 133.875 C213.44895983 141.32518557 218.62709064 148.78805455 223.72753906 156.30615234 C225.37104636 158.71415729 226.93323794 160.93323794 229 163 C236.64097301 152.04611624 244.2786924 141.09048133 251.8125 130.0625 C252.33690674 129.29526611 252.86131348 128.52803223 253.40161133 127.73754883 C255.44107616 124.75208828 257.47931137 121.76581747 259.51220703 118.77587891 C272.87111005 99.12888995 272.87111005 99.12888995 277 95 C279.04468974 94.89534531 281.09302554 94.86143956 283.14038086 94.85473633 C284.45521957 94.84835648 285.77005829 94.84197662 287.1247406 94.83540344 C288.57144128 94.83387489 290.01814245 94.83276086 291.46484375 94.83203125 C292.93835992 94.8288204 294.41187576 94.82545646 295.88539124 94.82194519 C298.9782078 94.81594748 302.07099639 94.81410594 305.16381836 94.81469727 C309.13313768 94.81479892 313.10227822 94.80114679 317.07155514 94.78392506 C320.11610238 94.77282363 323.16060617 94.77077748 326.20517159 94.77130699 C327.66884541 94.77012406 329.13252025 94.76568484 330.59617424 94.75797462 C332.64083442 94.7482128 334.6855467 94.75230712 336.73022461 94.75708008 C338.47776283 94.75494255 338.47776283 94.75494255 340.26060486 94.75276184 C343 95 343 95 345 97 C345.25595969 99.51595402 345.25595969 99.51595402 345.26450634 102.76905823 C345.27258853 104.00492896 345.28067072 105.24079969 345.28899783 106.51412106 C345.28791178 107.89816744 345.28663978 109.2822137 345.28520203 110.66625977 C345.29091616 112.12674339 345.29750329 113.58722382 345.30489284 115.04769993 C345.32270801 119.07548692 345.32800629 123.10321002 345.33133328 127.13103151 C345.33706614 131.46920373 345.35424909 135.8073321 345.37002563 140.14547729 C345.39911804 148.64962745 345.41752677 157.15376925 345.43236574 165.65795493 C345.45001312 175.55218893 345.47803918 185.44638517 345.50649796 195.34059298 C345.55689349 212.98909122 345.59763533 230.63759874 345.63305664 248.28613281 C345.66746961 265.42873481 345.70889247 282.57130105 345.75805664 299.71386719 C345.76259707 301.29747746 345.76259707 301.29747746 345.76722922 302.91307986 C345.77025126 303.96695749 345.7732733 305.02083513 345.77638692 306.10664845 C345.83221816 325.59714929 345.88143671 345.08766199 345.92758697 364.578188 C345.944088 371.48223445 345.96256893 378.38627402 345.98166466 385.29031372 C346.00479199 393.69891289 346.02413534 402.10751121 346.03869756 410.51612973 C346.04620558 414.80996755 346.05532185 419.10378596 346.06874657 423.39760971 C346.08096368 427.32299932 346.08857857 431.24836905 346.09240565 435.17377555 C346.09461173 436.59904855 346.09853526 438.02432007 346.10428592 439.44958317 C346.11180629 441.37669023 346.1126133 443.30382008 346.11301708 445.23094177 C346.11651709 446.84122836 346.11651709 446.84122836 346.1200878 448.48404598 C346 451 346 451 345 453 C324.54 453 304.08 453 283 453 C281.85132498 426.58047444 281.85132498 426.58047444 281.84178162 418.23670959 C281.83684364 417.24925591 281.83190566 416.26180223 281.82681805 415.24442571 C281.81185051 412.0406373 281.80319725 408.8368681 281.79467773 405.63305664 C281.78506684 403.29471679 281.77505506 400.95637857 281.76467896 398.61804199 C281.73797097 392.34895332 281.71677989 386.07985738 281.69667697 379.81074452 C281.67684814 373.89904358 281.6527737 367.98736107 281.62875474 362.0756759 C281.58139632 350.38631871 281.53804889 338.69695037 281.49731445 327.00756836 C281.45779604 315.66966896 281.41633227 304.33177935 281.37231445 292.99389648 C281.36959018 292.29202117 281.36686591 291.59014586 281.36405908 290.8670016 C281.35037693 287.34500118 281.33665719 283.82300091 281.32291877 280.30100071 C281.20945438 251.20068797 281.10260582 222.10035302 281 193 C279.72983162 194.74074622 278.46045478 196.48207002 277.19140625 198.22363281 C276.48443604 199.19326965 275.77746582 200.16290649 275.04907227 201.16192627 C272.29441884 204.97726732 269.63882143 208.85410222 267 212.75 C261.37952916 221.00715253 255.69092364 229.21487459 249.97192383 237.40405273 C246.68289301 242.11980478 243.41531515 246.84742053 240.19921875 251.61328125 C239.30879883 252.93005859 239.30879883 252.93005859 238.40039062 254.2734375 C237.28614632 255.92511093 236.17651288 257.5799075 235.07226562 259.23828125 C234.57791016 259.97046875 234.08355469 260.70265625 233.57421875 261.45703125 C233.14713623 262.09616455 232.72005371 262.73529785 232.2800293 263.39379883 C231 265 231 265 228 267 C227.34 266.01 226.68 265.02 226 264 C226.01571045 265.31266846 226.0314209 266.62533691 226.04760742 267.9777832 C226.59106589 317.82847689 226.59106589 317.82847689 223 339 C222.74259033 340.54373291 222.74259033 340.54373291 222.47998047 342.11865234 C211.60432659 405.30241092 182.23174734 460.07029691 138 506 C137.17757812 506.86367188 136.35515625 507.72734375 135.5078125 508.6171875 C130.89735408 513.35890453 126.00604146 517.589019 120.8359375 521.7109375 C119.01816472 523.17817559 117.22821414 524.68098752 115.4765625 526.2265625 C100.71200409 539.17261225 83.47445914 550.06625834 66 559 C65.10796875 559.45826172 64.2159375 559.91652344 63.296875 560.38867188 C20.07449674 582.37148198 -26.45445078 593.74549656 -74.9375 593.375 C-76.57685516 593.36802094 -76.57685516 593.36802094 -78.24932861 593.36090088 C-94.01516984 593.28231778 -109.46883015 592.94684488 -125 590 C-126.0921582 589.80132324 -127.18431641 589.60264648 -128.30957031 589.39794922 C-157.44885705 583.98752532 -185.74215668 574.83423918 -212.01269531 561.03857422 C-214.08079054 559.9577785 -216.16040256 558.90181453 -218.2421875 557.84765625 C-252.31925421 540.42740423 -284.3146384 514.06063781 -308 484 C-308.91795401 482.89235561 -309.83867784 481.78700262 -310.76171875 480.68359375 C-323.42544615 465.42465123 -333.88707907 448.58815115 -343 431 C-343.44053711 430.15163574 -343.88107422 429.30327148 -344.33496094 428.42919922 C-361.01447847 395.90473193 -370.71706203 361.22854493 -375 325 C-375.103125 324.17580566 -375.20625 323.35161133 -375.3125 322.50244141 C-376.36596663 312.8763901 -376.24385935 303.17152611 -376.25 293.5 C-376.25067474 292.54491547 -376.25134949 291.58983093 -376.25204468 290.60580444 C-376.17554412 222.25362872 -352.88492804 156.29325159 -310 103 C-309.18015625 101.97390625 -308.3603125 100.9478125 -307.515625 99.890625 C-300.95540115 91.88161421 -293.73134302 84.52165669 -286.4375 77.1875 C-285.71332382 76.45542328 -285.71332382 76.45542328 -284.97451782 75.70855713 C-278.33270164 69.01078761 -271.41222604 62.83869745 -264 57 C-263.392771 56.51313721 -262.78554199 56.02627441 -262.15991211 55.5246582 C-188.54144936 -3.32606379 -90.9086266 -21.93061998 0 0 Z " fill="#F4F4F4" transform="translate(441,92)"/>
<path d="M0 0 C0.88733826 0.00404846 1.77467651 0.00809692 2.68890381 0.01226807 C3.62232605 0.00876343 4.55574829 0.00525879 5.51745605 0.00164795 C8.61374268 -0.00717989 11.70980222 -0.00131648 14.80609131 0.00543213 C16.95078577 0.00408578 19.09547993 0.00214551 21.24017334 -0.00036621 C25.73938904 -0.0033189 30.23852544 0.00098485 34.73773193 0.01031494 C40.51519075 0.02170952 46.29246377 0.01515083 52.06991577 0.00317001 C56.49987192 -0.00404466 60.92978376 -0.00176246 65.35974121 0.0034256 C67.49047874 0.00476318 69.62122024 0.00311059 71.75195312 -0.00153351 C74.72583732 -0.00659227 77.69941736 0.00110237 80.67327881 0.01226807 C81.56061707 0.0082196 82.44795532 0.00417114 83.36218262 0 C89.45256371 0.04252953 89.45256371 0.04252953 91.68109131 2.27105713 C92.33975418 5.1303688 92.89075327 7.94436384 93.38031006 10.83355713 C93.61384438 12.15610504 93.61384438 12.15610504 93.85209656 13.50537109 C94.36548772 16.425947 94.86714549 19.34840852 95.36859131 22.27105713 C95.72466569 24.31184042 96.08128056 26.35252948 96.43841553 28.39312744 C98.95216484 42.81099106 101.36346653 57.24597598 103.74575806 71.68606567 C105.54441119 82.58839188 107.41444386 93.46912832 109.43109131 104.33355713 C112.51355449 120.9681367 115.30841318 137.65133765 118.11859131 154.33355713 C119.08302696 160.0575843 120.0476791 165.78157485 121.01312256 171.50543213 C121.13025604 172.19992714 121.24738953 172.89442215 121.36807251 173.60996246 C123.56774622 186.6466234 125.82357203 199.6727162 128.11834717 212.69293213 C128.39188503 214.24501212 128.66540377 215.79709548 128.93890381 217.34918213 C129.14341911 218.5093988 129.14341911 218.5093988 129.35206604 219.6930542 C130.53576758 226.41974904 131.69993688 233.1497586 132.86077881 239.88043213 C133.05004944 240.97769119 133.23932007 242.07495026 133.43432617 243.20545959 C133.82177506 245.45190118 134.20920574 247.69834591 134.59661865 249.9447937 C137.44151538 266.43946097 140.32004193 282.92634159 143.30609131 299.39605713 C145.70846714 312.64932413 147.98504043 325.91956743 150.18109131 339.20855713 C152.45523839 352.96925415 154.77408584 366.72042967 157.18109131 380.45855713 C157.32313995 381.27123047 157.4651886 382.08390381 157.61154175 382.92120361 C159.25781959 392.33225164 160.94413207 401.73497179 162.67718506 411.13043213 C163.16627118 413.79741726 163.65490854 416.46448432 164.14349365 419.13156128 C164.6056692 421.63846582 165.07673762 424.14358583 165.54827881 426.64874268 C165.83123343 428.18813814 166.11380575 429.72760394 166.39593506 431.26715088 C166.52681015 431.94666809 166.65768524 432.6261853 166.79252625 433.32629395 C167.73072855 438.52275036 167.68109131 442.79160432 167.68109131 448.27105713 C142.60109131 448.27105713 117.52109131 448.27105713 91.68109131 448.27105713 C90.38222642 443.72503002 89.34793225 439.82861698 88.68109131 435.24371338 C88.51609131 434.12029541 88.35109131 432.99687744 88.18109131 431.8394165 C88.01609131 430.68248291 87.85109131 429.52554932 87.68109131 428.33355713 C87.51609131 427.21142822 87.35109131 426.08929932 87.18109131 424.9331665 C85.89072596 416.05686427 84.794113 407.17523064 83.68109131 398.27105713 C54.64109131 398.27105713 25.60109131 398.27105713 -4.31890869 398.27105713 C-4.31890869 400.91105713 -4.31890869 403.55105713 -4.31890869 406.27105713 C-4.5354574 408.18516488 -4.80045164 410.09469273 -5.12359619 411.99371338 C-5.37907227 413.53369995 -5.37907227 413.53369995 -5.63970947 415.10479736 C-5.82259521 416.17028809 -6.00548096 417.23577881 -6.19390869 418.33355713 C-7.60467198 426.76666315 -8.88776186 435.17486084 -9.82672119 443.67340088 C-10.31890869 446.27105713 -10.31890869 446.27105713 -12.31890869 448.27105713 C-14.72263246 448.46394215 -17.01058728 448.533486 -19.41485596 448.51397705 C-20.14505951 448.5158754 -20.87526306 448.51777374 -21.62759399 448.51972961 C-24.0469427 448.52344156 -26.46599281 448.5127283 -28.88531494 448.50152588 C-30.56157903 448.50033431 -32.23784379 448.49988087 -33.91410828 448.50013733 C-37.42888563 448.4985718 -40.94356123 448.49027615 -44.45831299 448.47686768 C-48.97358468 448.45986465 -53.48874458 448.45605366 -58.00404453 448.45681286 C-61.46545996 448.45654154 -64.92685073 448.45106663 -68.38825798 448.44381142 C-70.0537084 448.44061963 -71.71916163 448.43865616 -73.38461494 448.43791771 C-75.70724418 448.43576026 -78.02975251 448.42702944 -80.35235596 448.4163208 C-81.39420799 448.41700058 -81.39420799 448.41700058 -82.45710754 448.41769409 C-87.20443343 448.38553239 -87.20443343 448.38553239 -88.31890869 447.27105713 C-87.79192979 441.12836521 -86.84962128 435.08688228 -85.78765869 429.01715088 C-85.63602264 428.13961151 -85.4843866 427.26207214 -85.32815552 426.35794067 C-84.82837491 423.47422764 -84.32394119 420.59135471 -83.81890869 417.70855713 C-83.64450256 416.70763031 -83.47009644 415.70670349 -83.29040527 414.67544556 C-80.3706646 397.93162323 -77.27666549 381.22360968 -74.11459351 364.52407837 C-71.72042373 351.87338006 -69.39706213 339.21718044 -67.25640869 326.52105713 C-65.11257388 313.81749484 -62.87788658 301.13320399 -60.56890869 288.45855713 C-60.40349579 287.55019104 -60.23808289 286.64182495 -60.06765747 285.70593262 C-58.02353313 274.49285146 -55.95282738 263.28481851 -53.86578369 252.07965088 C-53.01654103 247.51850584 -52.1675358 242.95731674 -51.31890869 238.39605713 C-51.10691833 237.25673737 -50.89492798 236.1174176 -50.67651367 234.943573 C-47.74950099 219.19433931 -44.91533513 203.43209039 -42.19390869 187.64605713 C-39.67035703 173.00983375 -37.10538581 158.38289384 -34.44390869 143.77105713 C-34.28195007 142.88164429 -34.11999146 141.99223145 -33.953125 141.0758667 C-31.94975198 130.08713675 -29.91875957 119.10364318 -27.87359619 108.12261963 C-27.2358725 104.69682827 -26.59824321 101.2710194 -25.96075439 97.84518433 C-25.534017 95.55199838 -25.10709742 93.25884632 -24.67999268 90.96572876 C-21.30945805 72.8520141 -18.08208944 54.71698899 -15.00640869 36.55084229 C-13.53031002 27.87446117 -11.97358154 19.21979771 -10.21734619 10.59527588 C-10.0573111 9.78581009 -9.897276 8.9763443 -9.73239136 8.14234924 C-8.27595506 1.17471684 -7.16266568 0.05001737 0 0 Z " fill="#2B2A2A" transform="translate(327.31890869140625,139.72894287109375)"/>
<path d="M0 0 C0.91222321 -0.00426498 1.82444641 -0.00852997 2.76431274 -0.01292419 C3.77351273 -0.01247101 4.78271271 -0.01201782 5.82249451 -0.0115509 C6.87958618 -0.01490952 7.93667786 -0.01826813 9.02580261 -0.02172852 C12.54715632 -0.031283 16.06846259 -0.0331848 19.58982849 -0.03425598 C22.03871683 -0.0374688 24.48760498 -0.04083289 26.93649292 -0.04434204 C32.08909041 -0.05034686 37.24167111 -0.05218089 42.39427185 -0.05158997 C48.9606677 -0.05148903 55.52695374 -0.06506383 62.09332371 -0.08236217 C67.16292807 -0.09355466 72.23250667 -0.09550685 77.30212212 -0.09498024 C79.71993826 -0.09615244 82.13775525 -0.100531 84.55555916 -0.10831261 C116.08470338 -0.20017132 145.78635355 3.54896502 169.77342224 26.13371277 C170.49320251 26.78630066 170.49320251 26.78630066 171.2275238 27.45207214 C191.76644829 46.13340308 202.47564527 70.9355796 203.96092224 98.62980652 C204.45136804 125.63497838 195.93722831 150.96304423 177.77342224 171.13371277 C176.58318905 172.52721623 175.39531387 173.92274096 174.21092224 175.32121277 C173.40654724 176.24933777 172.60217224 177.17746277 171.77342224 178.13371277 C172.60873474 179.08117371 172.60873474 179.08117371 173.46092224 180.04777527 C188.58548435 197.77825855 197.10138731 218.7407121 198.33934021 242.06706238 C198.40123693 243.21957064 198.40123693 243.21957064 198.46438408 244.3953619 C198.98573417 255.19878495 198.9173991 266.01196117 198.90623474 276.82511902 C198.90690986 279.15112315 198.90788162 281.47712721 198.90913391 283.8031311 C198.91059609 288.63460473 198.90850106 293.46605969 198.90379333 298.29753113 C198.8980422 304.50280234 198.90141798 310.7080308 198.9073658 316.91330051 C198.91096532 321.69574308 198.90983659 326.47817535 198.90723801 331.26061821 C198.90656985 333.55127403 198.9073933 335.84193078 198.90971756 338.13258553 C198.91223989 341.31080268 198.90841199 344.48894826 198.90281677 347.66716003 C198.904841 348.61711349 198.90686523 349.56706696 198.90895081 350.54580688 C198.88769617 357.01943884 198.88769617 357.01943884 197.77342224 358.13371277 C195.84580407 358.2329214 193.9145287 358.26170642 191.98435974 358.2631073 C190.12738464 358.26783554 190.12738464 358.26783554 188.2328949 358.2726593 C186.87140365 358.27086952 185.50991273 358.26881857 184.14842224 358.26652527 C182.7621916 358.26719836 181.37596107 358.26816843 179.98973083 358.26942444 C177.08102802 358.27090117 174.17235587 358.26874767 171.26365662 358.26408386 C167.52745626 358.25838657 163.79132773 358.26166571 160.05513 358.26765633 C157.19162958 358.27126262 154.32814631 358.27012304 151.46464539 358.26752853 C150.08667492 358.26685945 148.70870292 358.26768703 147.33073425 358.27000809 C145.4079847 358.27253569 143.48522972 358.268003 141.56248474 358.2631073 C139.91820496 358.26191391 139.91820496 358.26191391 138.2407074 358.26069641 C135.77342224 358.13371277 135.77342224 358.13371277 134.77342224 357.13371277 C134.67427769 355.65528233 134.64434105 354.17214857 134.64212036 352.69039917 C134.63610809 351.25028725 134.63610809 351.25028725 134.62997437 349.78108215 C134.63076744 348.18772537 134.63076744 348.18772537 134.63157654 346.56217957 C134.62810211 345.44989487 134.62462769 344.33761017 134.62104797 343.19161987 C134.61367294 340.76509798 134.60833692 338.33856926 134.60475731 335.9120388 C134.59760774 332.06504191 134.58194937 328.21817376 134.56341553 324.37121582 C134.51089692 313.4290307 134.46259598 302.48691048 134.44749451 291.54460144 C134.43817195 284.85838027 134.40795922 278.17252295 134.3661747 271.48641396 C134.35389973 268.94251228 134.348737 266.39856554 134.35097313 263.85463524 C134.3533411 260.2789439 134.33104147 256.70415472 134.30345154 253.12858582 C134.31005295 252.0886145 134.31665436 251.04864319 134.32345581 249.97715759 C134.1682776 237.64155523 130.09903716 227.24291498 121.77342224 218.13371277 C108.59195941 206.08613921 94.48412897 205.50965136 77.52342224 205.38371277 C75.60282302 205.35550204 73.68224831 205.32556765 71.76170349 205.29386902 C67.09905019 205.21743208 62.43650937 205.17394423 57.77342224 205.13371277 C57.77438369 205.88758616 57.77534513 206.64145956 57.77633572 207.4181776 C57.79722283 226.51828818 57.73363284 245.61607403 57.58982849 264.71574402 C57.58004408 266.0329563 57.57025967 267.35016857 57.56017876 268.70729637 C57.51387271 274.9259578 57.4664588 281.14460952 57.41761166 287.36325151 C57.36169036 294.4881115 57.30994151 301.61298731 57.26143032 308.73790151 C57.22326154 314.30453412 57.18133737 319.87113059 57.13654369 325.4377138 C57.11004618 328.74214504 57.08567628 332.04656873 57.06434822 335.35103798 C57.04042587 338.99975991 57.01037645 342.6483808 56.97874451 346.29704285 C56.97298904 347.38710632 56.96723358 348.4771698 56.96130371 349.6002655 C56.94662048 351.07708549 56.94662048 351.07708549 56.93164062 352.58374023 C56.92518807 353.44352384 56.91873552 354.30330744 56.91208744 355.18914509 C56.77342224 357.13371277 56.77342224 357.13371277 55.77342224 358.13371277 C53.87643375 358.23287071 51.97573437 358.26170591 50.07615662 358.2631073 C48.85819397 358.26625946 47.64023132 358.26941162 46.38536072 358.2726593 C45.04596419 358.27086952 43.706568 358.26881857 42.36717224 358.26652527 C41.00336184 358.26719836 39.63955156 358.26816844 38.27574158 358.26942444 C35.41411703 358.27090115 32.55252364 358.26874774 29.69090271 358.26408386 C26.0152361 358.25838657 22.3396425 358.26166573 18.66397858 358.26765633 C15.84680121 358.27126268 13.02964126 358.27012301 10.21246338 358.26752853 C8.85682161 358.26685947 7.50117828 358.26768698 6.14553833 358.27000809 C4.2539218 358.27253578 2.36229975 358.26800291 0.47068787 358.2631073 C-1.14694458 358.26191391 -1.14694458 358.26191391 -2.79725647 358.26069641 C-5.22657776 358.13371277 -5.22657776 358.13371277 -6.22657776 357.13371277 C-6.32502336 355.51095685 -6.35289833 353.88388737 -6.3535614 352.25814819 C-6.35638406 351.19420365 -6.35920671 350.13025911 -6.36211491 349.03407383 C-6.36008784 347.84903232 -6.35806078 346.6639908 -6.35597229 345.44303894 C-6.35769912 344.19316413 -6.35942595 342.94328932 -6.3612051 341.65553951 C-6.36576782 338.15716592 -6.36385316 334.65882081 -6.36078954 331.16044664 C-6.35889913 328.14265582 -6.36056311 325.1248711 -6.36223942 322.10708046 C-6.36728679 312.93956515 -6.36246829 303.77206981 -6.35535049 294.60455704 C-6.35133997 289.33814264 -6.34949327 284.0717287 -6.34788513 278.80531311 C-6.3272646 218.91948773 -6.12380542 159.03438582 -5.836303 99.14928836 C-5.7991205 91.38697259 -5.76410784 83.62464894 -5.72981262 75.86231995 C-5.68760141 66.35557695 -5.64132613 56.84886324 -5.58989984 47.34216547 C-5.56344773 42.45012664 -5.53845656 37.55809268 -5.51746941 32.66602707 C-5.49805932 28.17026315 -5.47398862 23.67454971 -5.44607902 19.17883074 C-5.43670673 17.54056769 -5.42903733 15.90229392 -5.42316079 14.2640146 C-5.4149452 12.04869598 -5.40069354 9.83349986 -5.38479614 7.6182251 C-5.37834359 6.38158647 -5.37189104 5.14494783 -5.36524296 3.8708353 C-5.14643846 -0.44816273 -3.91615345 0.00823602 0 0 Z M57.77342224 63.13371277 C57.77342224 89.20371277 57.77342224 115.27371277 57.77342224 142.13371277 C69.80810974 142.25746277 69.80810974 142.25746277 82.08592224 142.38371277 C85.85123352 142.43833679 85.85123352 142.43833679 89.69261169 142.49406433 C91.71563364 142.50576313 93.7386651 142.51595212 95.76170349 142.52433777 C97.2966748 142.55503357 97.2966748 142.55503357 98.86265564 142.58634949 C108.52998905 142.59095902 117.05010192 140.10173301 124.77342224 134.13371277 C125.33545349 133.71476746 125.89748474 133.29582214 126.47654724 132.86418152 C134.17213347 126.79136021 139.13510165 118.82823793 140.77342224 109.13371277 C141.87595719 97.42778611 140.08619436 87.28825428 132.53123474 78.04386902 C125.45326364 70.35247375 117.24692129 63.55526951 106.35624695 63.01345825 C105.45911987 63.01567886 104.5619928 63.01789948 103.63768005 63.02018738 C102.08524597 63.02036865 102.08524597 63.02036865 100.50144958 63.02055359 C99.42073181 63.02566956 98.34001404 63.03078552 97.22654724 63.03605652 C95.72873718 63.03756714 95.72873718 63.03756714 94.20066833 63.03910828 C90.47490794 63.04433553 86.74916392 63.0582968 83.02342224 63.07121277 C70.52467224 63.10215027 70.52467224 63.10215027 57.77342224 63.13371277 Z " fill="#F4F4F4" transform="translate(1053.226577758789,186.8662872314453)"/>
<path d="M0 0 C1.1947142 -0.00637985 2.38942841 -0.0127597 3.62034607 -0.01933289 C4.92133743 -0.02044571 6.2223288 -0.02155853 7.56274414 -0.02270508 C8.90173886 -0.02591608 10.24073321 -0.02928003 11.57972717 -0.03279114 C14.39007379 -0.03878841 17.20038962 -0.04063043 20.01074219 -0.04003906 C23.61686399 -0.03993742 27.22278897 -0.05358878 30.8288641 -0.07081127 C33.59547334 -0.08191492 36.36203477 -0.08395878 39.12866402 -0.08342934 C41.10629354 -0.08518822 43.08390813 -0.09603985 45.06150818 -0.10697937 C46.25937454 -0.10390274 47.45724091 -0.10082611 48.69140625 -0.09765625 C50.27906044 -0.09979378 50.27906044 -0.09979378 51.89878845 -0.10197449 C54.41040039 0.14526367 54.41040039 0.14526367 56.41040039 2.14526367 C56.67211342 4.23420906 56.67211342 4.23420906 56.68887329 6.86550903 C56.70003677 7.86112854 56.71120026 8.85674805 56.72270203 9.88253784 C56.72486221 10.97873444 56.7270224 12.07493103 56.72924805 13.2043457 C56.73929367 14.35555908 56.74933929 15.50677246 56.75968933 16.69287109 C56.7906769 20.51293418 56.80759975 24.33292672 56.82446289 28.15307617 C56.843162 30.79581313 56.86273445 33.43854404 56.88314819 36.08126831 C56.92998191 42.33562714 56.96670369 48.59000312 56.99982107 54.84444797 C57.0380101 61.96412518 57.08742862 69.08371046 57.13780522 76.20331025 C57.24119331 90.85055733 57.33043128 105.49787027 57.41040039 120.14526367 C57.97847412 119.2793158 58.54654785 118.41336792 59.13183594 117.5211792 C70.9882068 99.44840565 82.8469885 81.37730104 94.74853516 63.33422852 C100.31756376 54.88943963 105.87701591 46.4387907 111.40609741 37.96777344 C114.0697597 33.88823658 116.73872365 29.81218219 119.40820312 25.7364502 C120.69428428 23.76977392 121.97784326 21.80144582 123.25878906 19.8314209 C125.04121907 17.09065118 126.83225481 14.35569552 128.62524414 11.62182617 C129.15319077 10.80507416 129.68113739 9.98832214 130.2250824 9.14682007 C130.96638145 8.02190659 130.96638145 8.02190659 131.72265625 6.87426758 C132.14751816 6.22293854 132.57238007 5.5716095 133.01011658 4.90054321 C135.45078224 1.84112736 137.25397043 0.29443261 141.20721436 -0.21549988 C142.28199036 -0.20883804 143.35676636 -0.20217621 144.46411133 -0.1953125 C145.68507507 -0.19508591 146.90603882 -0.19485931 148.16400146 -0.19462585 C149.47765686 -0.179142 150.79131226 -0.16365814 152.14477539 -0.14770508 C153.50668877 -0.14210696 154.8686082 -0.13783788 156.23052979 -0.13484192 C159.80797118 -0.12340994 163.38504481 -0.0939575 166.96234131 -0.06072998 C170.61554998 -0.02999324 174.26881832 -0.01632892 177.92211914 -0.0012207 C185.08504687 0.03091426 192.24767202 0.08209009 199.41040039 0.14526367 C200.41040039 3.14526367 200.41040039 3.14526367 199.24560547 5.57104492 C198.64643311 6.52366211 198.04726074 7.4762793 197.42993164 8.45776367 C196.43461426 10.05672485 196.43461426 10.05672485 195.41918945 11.68798828 C194.68732912 12.84056331 193.95522723 13.99298499 193.22290039 15.14526367 C192.48080806 16.32903776 191.73960323 17.51336867 190.99926758 18.69824219 C188.81479918 22.18812032 186.61292674 25.66675573 184.41040039 29.14526367 C183.30423202 30.9039384 182.19868533 32.66300444 181.09399414 34.42260742 C178.68330482 38.2562895 176.26068343 42.08224095 173.83276367 45.9050293 C164.28670268 60.94015729 154.84045675 76.03720061 145.41040039 91.14526367 C142.84846648 95.24978411 140.28606046 99.35400881 137.72290039 103.45776367 C137.10318359 104.4501001 136.4834668 105.44243652 135.8449707 106.46484375 C132.37912376 112.01010732 128.90201913 117.54783835 125.39648438 123.06811523 C124.38168263 124.67503132 123.37563127 126.28751452 122.37939453 127.90600586 C120.40542613 131.10277738 118.49913251 134.04122783 116.05493164 136.90698242 C113.92421367 139.49459662 113.04605234 140.84691423 112.41040039 144.14526367 C113.39324838 147.05238708 114.43790428 149.58909685 115.76977539 152.32885742 C116.13840698 153.12014038 116.50703857 153.91142334 116.88684082 154.72668457 C118.04639205 157.20691421 119.22777493 159.675969 120.41040039 162.14526367 C121.1109701 163.63804901 121.80991903 165.13159627 122.50708008 166.62597656 C124.25249111 170.35736354 126.01777972 174.07891944 127.79083252 177.79724121 C129.35596091 181.07971896 130.91587436 184.36466707 132.47610474 187.6494751 C133.28046146 189.3429026 134.08504679 191.03622153 134.88986206 192.72943115 C138.79234227 200.9416866 142.66729783 209.16677207 146.53540039 217.39526367 C147.19359558 218.79500699 147.85179871 220.19474657 148.51000977 221.59448242 C149.82107682 224.38280241 151.13191027 227.17123209 152.44262695 229.9597168 C155.42913494 236.31286754 158.41890814 242.66448181 161.40838623 249.01623535 C163.07585337 252.55918405 164.74311673 256.10222863 166.41040039 259.64526367 C167.07706608 261.0619308 167.74373274 262.47859747 168.41040039 263.89526367 C172.41040039 272.39526368 172.41040039 272.39526368 173.41029358 274.52005005 C174.07730257 275.93743525 174.74432528 277.35481399 175.41136169 278.77218628 C177.07290315 282.30280671 178.73420984 285.83353723 180.39501953 289.36450195 C183.81020628 296.6246659 187.22984038 303.88269179 190.65649414 311.13745117 C194.58958444 319.46632164 198.50905388 327.80147545 202.41040039 336.14526367 C202.93408203 337.26449219 203.45776367 338.3837207 203.99731445 339.53686523 C205.33241663 342.40190293 206.65579456 345.27191789 207.97290039 348.14526367 C208.53738892 349.35545166 208.53738892 349.35545166 209.11328125 350.59008789 C209.94074789 352.41505136 210.6860112 354.27698826 211.41040039 356.14526367 C211.08040039 356.80526367 210.75040039 357.46526367 210.41040039 358.14526367 C201.7092311 358.16840536 193.00807236 358.1861881 184.30687904 358.19707584 C180.26683085 358.20230066 176.22680367 358.20939106 172.18676758 358.22070312 C168.28995939 358.23154621 164.39317144 358.23754354 160.49634933 358.24014091 C159.00755876 358.24199259 157.51876932 358.2456083 156.02998734 358.25099373 C153.94924755 358.25822301 151.86859207 358.25925381 149.7878418 358.25878906 C148.60203522 358.26100967 147.41622864 358.26323029 146.19448853 358.26551819 C143.41040039 358.14526367 143.41040039 358.14526367 141.41040039 357.14526367 C140.39330527 355.19809158 139.46119567 353.20637844 138.56665039 351.19995117 C138.28584625 350.57571259 138.00504211 349.951474 137.71572876 349.30831909 C137.10096565 347.94005622 136.48909084 346.57049296 135.87969971 345.1998291 C134.20245912 341.42838766 132.50362934 337.6666544 130.80883789 333.90307617 C130.45151581 333.10788574 130.09419373 332.31269531 129.7260437 331.4934082 C125.72524665 322.5983491 121.6318316 313.74657602 117.53540039 304.89526367 C116.00632125 301.58817222 114.47784795 298.28080094 112.94946289 294.97338867 C112.57098206 294.15452179 112.19250122 293.33565491 111.80255127 292.49197388 C107.13116711 282.38205119 102.48563014 272.26025583 97.84277344 262.13720703 C94.0289221 253.82496982 90.19646705 245.52170858 86.34399414 237.22729492 C85.08730802 234.51806648 83.83086354 231.80872608 82.57446289 229.09936523 C81.76091307 227.34725357 80.94598544 225.59578096 80.12963867 223.8449707 C78.9998468 221.42185833 77.87459914 218.99668372 76.75024414 216.57104492 C76.41053085 215.84585159 76.07081757 215.12065826 75.72080994 214.37348938 C73.41040039 209.37275046 73.41040039 209.37275046 73.41040039 207.14526367 C72.75040039 207.14526367 72.09040039 207.14526367 71.41040039 207.14526367 C71.00156616 208.24124878 71.00156616 208.24124878 70.58447266 209.359375 C69.46128101 212.02453197 68.18476625 214.28956544 66.62524414 216.71948242 C66.09479492 217.55157227 65.5643457 218.38366211 65.01782227 219.2409668 C64.46674805 220.09625977 63.91567383 220.95155273 63.34790039 221.83276367 C62.25211345 223.54453306 61.1570264 225.25675075 60.06274414 226.96948242 C59.57797607 227.72318115 59.09320801 228.47687988 58.59375 229.25341797 C56.59264832 232.45262097 56.28021278 234.32003292 56.25891113 238.08656311 C56.24639565 239.65355202 56.24639565 239.65355202 56.23362732 241.25219727 C56.2294429 242.40292725 56.22525848 243.55365723 56.22094727 244.73925781 C56.21265396 245.94738632 56.20436066 247.15551483 56.19581604 248.4002533 C56.1783847 251.03033248 56.16273574 253.66035327 56.15003967 256.29045296 C56.12984629 260.44533942 56.10219133 264.60015533 56.07336426 268.75498962 C56.00812315 278.32341533 55.95269668 287.89189326 55.89737701 297.46038055 C55.84657616 306.23109318 55.79373162 315.00178019 55.73285151 323.77242941 C55.70443956 327.90675144 55.68086663 332.04106494 55.66092682 336.17543614 C55.64444564 339.34387108 55.62163488 342.51226179 55.59985352 345.68066406 C55.5956691 346.83341827 55.59148468 347.98617249 55.58717346 349.17385864 C55.57465797 350.73661781 55.57465797 350.73661781 55.56188965 352.33094788 C55.55673592 353.24184709 55.55158218 354.1527463 55.54627228 355.09124851 C55.41040039 357.14526367 55.41040039 357.14526367 54.41040039 358.14526367 C52.5134119 358.24442162 50.61271252 358.27325681 48.71313477 358.2746582 C47.49517212 358.27781036 46.27720947 358.28096252 45.02233887 358.28421021 C43.68294234 358.28242042 42.34354615 358.28036947 41.00415039 358.27807617 C39.64033999 358.27874927 38.27652971 358.27971934 36.91271973 358.28097534 C34.05109518 358.28245205 31.18950179 358.28029864 28.32788086 358.27563477 C24.65221425 358.26993748 20.97662065 358.27321663 17.30095673 358.27920723 C14.48377936 358.28281358 11.66661941 358.28167392 8.84944153 358.27907944 C7.49379976 358.27841037 6.13815643 358.27923788 4.78251648 358.28155899 C2.89089995 358.28408668 0.9992779 358.27955381 -0.89233398 358.2746582 C-2.50996643 358.27346481 -2.50996643 358.27346481 -4.16027832 358.27224731 C-6.58959961 358.14526367 -6.58959961 358.14526367 -7.58959961 357.14526367 C-7.6880762 355.50758983 -7.71592033 353.86563794 -7.71658325 352.2250061 C-7.71940591 351.15119942 -7.72222857 350.07739273 -7.72513676 348.97104645 C-7.72310969 347.77508598 -7.72108263 346.57912552 -7.71899414 345.34692383 C-7.72072097 344.08571465 -7.7224478 342.82450546 -7.72422695 341.52507782 C-7.72878906 337.99579287 -7.72687545 334.46653614 -7.72381139 330.93725061 C-7.72192135 327.89417341 -7.72358468 324.85110226 -7.72526127 321.80802524 C-7.73030673 312.56948863 -7.72549253 303.33097184 -7.71837234 294.09243774 C-7.71436203 288.78753686 -7.71251533 283.48263644 -7.71090698 278.17773438 C-7.69043321 218.29821479 -7.48844562 158.41943513 -7.19932485 98.54064977 C-7.16214467 90.82351398 -7.12713183 83.10637027 -7.09283447 75.38922119 C-7.05063063 65.94049251 -7.00435757 56.49179334 -6.95292169 47.04311025 C-6.92647314 42.18273794 -6.90148148 37.32237052 -6.88049126 32.46197128 C-6.8610826 27.99652289 -6.83701255 23.53112534 -6.80910087 19.06572223 C-6.7997288 17.43873127 -6.79205933 15.81172952 -6.78618264 14.18472219 C-6.77796713 11.98478662 -6.76371567 9.78497441 -6.74781799 7.58508301 C-6.74136544 6.35711754 -6.73491289 5.12915207 -6.72826481 3.86397552 C-6.48229433 -0.95859615 -4.30887672 0.01552944 0 0 Z " fill="#F5F5F5" transform="translate(1301.589599609375,186.854736328125)"/>
<path d="M0 0 C2.50314817 -0.29200324 4.75904359 -0.38896672 7.26367188 -0.35644531 C8.01177628 -0.35848969 8.75988068 -0.36053406 9.53065491 -0.36264038 C12.01026637 -0.36565518 14.48921727 -0.34715078 16.96875 -0.328125 C18.68745763 -0.32506844 20.40616774 -0.32319154 22.12487793 -0.32244873 C25.72966976 -0.31784126 29.33423873 -0.30339866 32.93896484 -0.28125 C37.56624293 -0.25296727 42.1933453 -0.24203899 46.8207016 -0.2375679 C50.37052173 -0.23341629 53.92030612 -0.22360097 57.47010803 -0.21169281 C59.17659722 -0.20598408 60.88308985 -0.20122737 62.58958435 -0.19742584 C64.97189405 -0.19057154 67.35406315 -0.17694306 69.73632812 -0.16113281 C70.44600235 -0.16001495 71.15567657 -0.15889709 71.88685608 -0.15774536 C76.77061351 -0.11469325 76.77061351 -0.11469325 79 1 C79.65143245 3.72702891 80.17390847 6.39553831 80.63522339 9.15667725 C80.78574071 10.0146234 80.93625803 10.87256955 81.09133649 11.75651407 C81.59383139 14.63283979 82.08369744 17.5111755 82.57373047 20.38964844 C82.92794995 22.43160554 83.282986 24.47342114 83.63879204 26.51510239 C84.38891083 30.82810845 85.13381708 35.14196876 85.87459564 39.45658875 C86.94778335 45.70500747 88.03443406 51.95101585 89.12506104 58.19641113 C91.16827738 69.90568879 93.19793848 81.61729199 95.22534418 93.32931614 C96.25237782 99.26106862 97.28054749 105.19262421 98.30856323 111.12420654 C100.03870907 121.10792083 101.76815332 131.09175643 103.49707031 141.07568359 C105.23775021 151.12753346 106.97891761 161.17929868 108.72070312 171.23095703 C108.93381173 172.46079205 109.14692034 173.69062707 109.36648679 174.95772982 C110.22379312 179.90513808 111.08111137 184.85254427 111.93843985 189.79994869 C114.25205388 203.1514374 116.56487793 216.50306196 118.87530518 229.85510254 C119.68931095 234.55900413 120.50334141 239.26290145 121.31738281 243.96679688 C121.5155971 245.11224 121.71381139 246.25768312 121.91803217 247.43783665 C124.37453357 261.63208053 126.83800834 275.82508438 129.31124306 290.01642227 C130.4903778 296.78231616 131.66693784 303.54865688 132.84275472 310.31512809 C133.75857102 315.58394346 134.67793733 320.85212223 135.6001339 326.11982441 C136.15395061 329.288324 136.70432995 332.45741314 137.25368547 335.62668896 C137.50493477 337.07191473 137.75763558 338.51688905 138.01192427 339.96158314 C138.35523015 341.91298253 138.69288911 343.86537288 139.03024292 345.81781006 C139.21900434 346.89955379 139.40776577 347.98129753 139.60224724 349.09582138 C139.97109797 351.78897279 140.15346715 354.28728466 140 357 C138.24752441 358.75247559 135.79099682 358.14576396 133.41040039 358.16113281 C132.21568619 358.17074036 131.02097198 358.1803479 129.79005432 358.19024658 C127.83856728 358.1966214 127.83856728 358.1966214 125.84765625 358.203125 C124.50866187 358.20887384 123.16966752 358.2146316 121.83067322 358.22039795 C119.02033096 358.23091563 116.21001738 358.23675336 113.3996582 358.24023438 C109.79345251 358.24572312 106.18762366 358.26975543 102.58153629 358.29820633 C99.81492495 358.31680299 97.04840495 358.32203668 94.28173637 358.32357025 C92.30407732 358.32808184 90.32646708 358.34674252 88.34889221 358.36553955 C87.15102585 358.36253845 85.95315948 358.35953735 84.71899414 358.35644531 C83.66055801 358.36009094 82.60212189 358.36373657 81.51161194 358.36749268 C80.68278 358.24622009 79.85394806 358.12494751 79 358 C76.66403511 354.49605267 76.27146179 351.44291885 75.7109375 347.375 C75.54871201 346.2600415 75.54871201 346.2600415 75.38320923 345.12255859 C75.15621212 343.55291923 74.93285741 341.98274939 74.71289062 340.41210938 C74.37611469 338.00795744 74.02892639 335.60549504 73.6796875 333.203125 C73.46032955 331.6771706 73.24155968 330.15113153 73.0234375 328.625 C72.86879532 327.54677979 72.86879532 327.54677979 72.71102905 326.44677734 C72.31374139 323.6010373 72 320.87766487 72 318 C49.23 318 26.46 318 3 318 C2.34 323.94 1.68 329.88 1 336 C0.5263811 339.6752827 0.04127989 343.33595153 -0.5 347 C-0.61730469 347.8559375 -0.73460937 348.711875 -0.85546875 349.59375 C-0.97535156 350.4084375 -1.09523438 351.223125 -1.21875 352.0625 C-1.32123047 352.77535156 -1.42371094 353.48820312 -1.52929688 354.22265625 C-2 356 -2 356 -4 358 C-6.51161194 358.24723816 -6.51161194 358.24723816 -9.71899414 358.24291992 C-10.9168605 358.24599655 -12.11472687 358.24907318 -13.34889221 358.25224304 C-15.29734291 358.24146477 -15.29734291 358.24146477 -17.28515625 358.23046875 C-18.62511653 358.229277 -19.96507766 358.22882378 -21.30503845 358.2290802 C-24.11364977 358.22751528 -26.92213363 358.21922423 -29.73071289 358.20581055 C-33.3379792 358.18880427 -36.94510557 358.18499666 -40.55240726 358.18575573 C-43.31897833 358.18548436 -46.08551856 358.18000875 -48.85207939 358.17275429 C-50.83140054 358.16800773 -52.8107282 358.16628961 -54.79005432 358.16459656 C-55.98476852 358.15821671 -57.17948273 358.15183685 -58.41040039 358.14526367 C-59.46804092 358.14145187 -60.52568146 358.13764008 -61.6153717 358.13371277 C-64 358 -64 358 -65 357 C-64.42537207 347.82316279 -62.63606642 338.82294157 -60.99438477 329.79052734 C-60.68091803 328.04960401 -60.36779288 326.30861914 -60.05497932 324.56757832 C-59.20118833 319.82119384 -58.34259292 315.07568954 -57.48318076 310.33032012 C-56.56429297 305.25163596 -55.64994949 300.17213361 -54.73506165 295.09272766 C-52.96257884 285.256086 -51.18602332 275.42018438 -49.40788609 265.58456343 C-47.35879425 254.24975814 -45.31289409 242.91437761 -43.26727295 231.57894552 C-42.23761715 225.87332866 -41.20785487 220.16773102 -40.17803955 214.46214294 C-39.97380953 213.33062178 -39.76957952 212.19910061 -39.55916071 211.03329092 C-38.10890991 202.99883422 -36.65772151 194.96454716 -35.20623779 186.93031311 C-30.55880571 161.20358475 -25.92635093 135.47424579 -21.31707996 109.7406528 C-20.22960907 103.66962837 -19.14090682 97.59882599 -18.05122375 91.52819824 C-17.90229559 90.69850785 -17.75336743 89.86881745 -17.59992629 89.01398492 C-16.86784667 84.93578375 -16.13560325 80.85761204 -15.40324497 76.77946091 C-13.8644504 68.20928535 -12.32978453 59.63838949 -10.80008906 51.06658512 C-9.76896774 45.29082999 -8.73281368 39.51599264 -7.69251901 33.74188274 C-7.10159819 30.46105603 -6.51380197 27.17975057 -5.93071938 23.89751625 C-5.30774779 20.39231563 -4.67625865 16.88875818 -4.04248047 13.38549805 C-3.86302667 12.36352514 -3.68357286 11.34155224 -3.49868107 10.28861046 C-3.32927226 9.36234163 -3.15986345 8.43607281 -2.98532104 7.48173523 C-2.84218916 6.68235881 -2.69905727 5.88298239 -2.55158806 5.05938244 C-2 3 -2 3 0 0 Z M38 105 C37.86156174 105.87408005 37.72312347 106.7481601 37.58049011 107.64872742 C36.22277671 116.22073007 34.8646464 124.79266655 33.50620842 133.36455441 C32.62590622 138.9197054 31.74617194 144.474946 30.86680317 150.03024483 C27.95843093 168.40153373 25.04370177 186.77168232 22.0842495 205.13482094 C21.69234174 207.56760097 21.30104059 210.00047769 20.9099884 212.43339539 C20.78404895 213.21689393 20.65810949 214.00039248 20.52835369 214.8076334 C20.27900399 216.35901243 20.0296807 217.9103957 19.78038502 219.46178341 C19.05832255 223.95268782 18.33203806 228.44288491 17.60276604 232.93262386 C17.26107946 235.04074107 16.9215084 237.14918589 16.58288574 239.25779724 C16.17394628 241.80392989 15.76159755 244.34951841 15.34509277 246.89442444 C15.1663562 248.0136882 14.98761963 249.13295197 14.8034668 250.28613281 C14.64726364 251.25125793 14.49106049 252.21638306 14.3301239 253.21075439 C13.88246438 256.52494971 13.88246438 256.52494971 14 262 C29.84 262 45.68 262 62 262 C59.29702741 243.44917123 56.59362408 224.8984054 53.88944435 206.34775257 C52.63369986 197.7332591 51.37814531 189.11873802 50.12304688 180.50415039 C49.02837411 172.99067589 47.93333584 165.47725475 46.83786905 157.96389598 C46.25850735 153.99020353 45.67932163 150.01648563 45.10057449 146.04270363 C44.55437975 142.29247289 44.0076915 138.5423144 43.46064568 134.79220772 C43.1672626 132.78015187 42.87438395 130.76802249 42.58152771 128.75588989 C41.42494168 120.83134295 40.23011917 112.91346787 39 105 C38.67 105 38.34 105 38 105 Z " fill="#F5F5F5" transform="translate(876,187)"/>
<path d="M0 0 C0.6821021 -0.00155999 1.36420421 -0.00311998 2.06697607 -0.00472724 C4.36941994 -0.00873932 6.67179872 -0.00554681 8.97424316 -0.00241089 C10.61806782 -0.00376484 12.26189217 -0.00554473 13.90571594 -0.00772095 C18.38286133 -0.01229604 22.85998378 -0.01050541 27.33712959 -0.00734186 C32.01186309 -0.00481865 36.68659456 -0.00715569 41.36132812 -0.00872803 C49.21326044 -0.01054984 57.06518337 -0.00814312 64.91711426 -0.00338745 C74.00855878 0.00205519 83.09998087 0.00029254 92.19142485 -0.00521386 C99.9824809 -0.00974466 107.77353018 -0.01039569 115.56458712 -0.00777519 C120.22427011 -0.00621223 124.88394255 -0.00601915 129.54362488 -0.00931168 C133.92331179 -0.01218992 138.30296966 -0.01021556 142.68265343 -0.00441742 C144.29479105 -0.00308957 145.90693109 -0.00348436 147.51906776 -0.00568008 C149.71041793 -0.00839063 151.90167353 -0.00501168 154.09301758 0 C155.9369598 0.00056554 155.9369598 0.00056554 157.81815338 0.0011425 C160.54650879 0.12698364 160.54650879 0.12698364 161.54650879 1.12698364 C161.64046936 3.06004863 161.66394396 4.99657202 161.66003418 6.93191528 C161.65991333 8.19056396 161.65979248 9.44921265 161.65966797 10.7460022 C161.6546315 12.09304859 161.64946487 13.44009451 161.64416504 14.78713989 C161.64315796 16.00494141 161.64215088 17.22274292 161.64111328 18.47744751 C161.63586174 23.04813573 161.62190064 27.61881058 161.60900879 32.18948364 C161.58838379 42.39885864 161.56775879 52.60823364 161.54650879 63.12698364 C126.23650879 63.12698364 90.92650879 63.12698364 54.54650879 63.12698364 C54.54650879 89.19698364 54.54650879 115.26698364 54.54650879 142.12698364 C89.85650879 142.12698364 125.16650879 142.12698364 161.54650879 142.12698364 C163.29068355 163.05708076 162.54650879 184.12433831 162.54650879 205.12698364 C126.90650879 205.12698364 91.26650879 205.12698364 54.54650879 205.12698364 C54.54650879 234.49698364 54.54650879 263.86698364 54.54650879 294.12698364 C62.25896973 294.11538208 69.97143066 294.10378052 77.91760254 294.09182739 C82.78934817 294.08672082 87.66109052 294.08190706 92.53283691 294.07815552 C100.27381064 294.07216636 108.01477259 294.06506414 115.7557373 294.05154419 C121.99321179 294.04071772 128.23067366 294.03470732 134.46815681 294.0321064 C136.85371156 294.03025171 139.23926558 294.02663028 141.62481499 294.02125359 C144.9534647 294.01404635 148.28206158 294.01299257 151.61071777 294.01345825 C152.60765152 294.00986298 153.60458527 294.0062677 154.63172913 294.00256348 C155.53341827 294.00393814 156.43510742 294.00531281 157.36412048 294.00672913 C158.15225348 294.00580733 158.94038649 294.00488554 159.75240231 294.00393581 C161.54650879 294.12698364 161.54650879 294.12698364 162.54650879 295.12698364 C162.64571742 297.05460182 162.67450244 298.98587718 162.67590332 300.91604614 C162.67905548 302.15402954 162.68220764 303.39201294 162.68545532 304.66751099 C162.68366554 306.02900223 162.68161459 307.39049315 162.67932129 308.75198364 C162.67999438 310.13821428 162.68096445 311.52444481 162.68222046 312.91067505 C162.68369719 315.81937786 162.68154369 318.72805001 162.67687988 321.63674927 C162.67118259 325.37294963 162.67446173 329.10907816 162.68045235 332.84527588 C162.68405864 335.7087763 162.68291906 338.57225957 162.68032455 341.4357605 C162.67965547 342.81373096 162.68048305 344.19170296 162.68280411 345.56967163 C162.68533171 347.49242118 162.68079902 349.41517616 162.67590332 351.33792114 C162.67510773 352.43410767 162.67431213 353.53029419 162.67349243 354.65969849 C162.54650879 357.12698364 162.54650879 357.12698364 161.54650879 358.12698364 C159.37188413 358.22614955 157.19397428 358.25330755 155.01708984 358.25396729 C153.98168603 358.25630727 153.98168603 358.25630727 152.92536497 358.25869453 C150.59528229 358.2627067 148.26526392 358.25951406 145.93518066 358.25637817 C144.27165183 358.25773212 142.6081233 358.25951201 140.94459534 358.26168823 C136.41373274 358.26626337 131.88289281 358.26447268 127.3520298 358.26130915 C122.62124188 358.25878596 117.89045596 358.26112297 113.15966797 358.26269531 C105.21357879 358.26451713 97.2674989 358.26211038 89.32141113 358.25735474 C80.12090356 358.25191209 70.92041814 358.25367474 61.7199111 358.25918114 C53.83543759 358.26371193 45.95097076 358.26436299 38.06649637 358.26174247 C33.35092207 358.26017951 28.63535819 358.25998646 23.91978455 358.26327896 C19.4875681 358.26615717 15.05538036 358.26418291 10.62316704 358.2583847 C8.99167872 358.25705684 7.36018801 358.25745167 5.72870064 358.25964737 C3.5110765 358.26235784 1.29354582 358.25897904 -0.92407227 358.25396729 C-2.16811577 358.25359026 -3.41215927 358.25321323 -4.69390106 358.25282478 C-7.45349121 358.12698364 -7.45349121 358.12698364 -8.45349121 357.12698364 C-8.55224912 355.34014757 -8.57981325 353.54935917 -8.58047485 351.75979614 C-8.58329751 350.58736799 -8.58612017 349.41493984 -8.58902836 348.20698357 C-8.5870013 346.90183359 -8.58497423 345.59668362 -8.58288574 344.25198364 C-8.5842184 342.86354592 -8.58597398 341.47510854 -8.58811855 340.08667183 C-8.59267512 336.24827315 -8.59077113 332.40990046 -8.58770299 328.57150126 C-8.58581634 325.27556023 -8.58747377 321.97962483 -8.58915287 318.68368399 C-8.59418085 308.7349343 -8.58940629 298.7862031 -8.58226395 288.83745575 C-8.57825553 283.14769005 -8.57640889 277.45792477 -8.57479858 271.76815796 C-8.55568657 211.95169873 -8.36960374 152.13613088 -8.06321645 92.32047486 C-8.03135417 86.0901591 -8.00081997 79.85983873 -7.97139388 73.629511 C-7.92023936 62.80047797 -7.86361975 51.97149185 -7.80067635 41.1425209 C-7.77979866 37.5242295 -7.76112444 33.90593722 -7.74438286 30.28762436 C-7.72498966 26.12533105 -7.7009266 21.96309252 -7.67299247 17.80084801 C-7.66362287 16.28657804 -7.6559525 14.7722965 -7.65007424 13.25800896 C-7.64185981 11.21194018 -7.62699347 9.16590123 -7.61170959 7.11987305 C-7.60525704 5.9786392 -7.59880449 4.83740536 -7.59215641 3.66158867 C-7.32213519 -1.27401979 -4.29553965 0.00131745 0 0 Z " fill="#F5F5F5" transform="translate(1542.4534912109375,186.87301635742188)"/>
<path d="M0 0 C1.14919602 0.0023229 1.14919602 0.0023229 2.32160813 0.00469273 C3.12959479 0.00242718 3.93758145 0.00016162 4.77005255 -0.00217259 C7.49856076 -0.00854206 10.22701967 -0.00768135 12.95553452 -0.00685817 C14.90315176 -0.00984782 16.8507684 -0.0132499 18.79838425 -0.01703578 C24.10407839 -0.02589959 29.40975643 -0.02821489 34.71545726 -0.02885157 C39.13671963 -0.02979865 43.5579782 -0.03347459 47.97923911 -0.03702366 C58.40558431 -0.04517722 68.83192087 -0.04760707 79.25826889 -0.04689723 C90.03223303 -0.04629615 100.80614715 -0.05685196 111.58009863 -0.0726409 C120.81404629 -0.08569337 130.04797756 -0.0910821 139.28193438 -0.09044182 C144.80406697 -0.09018616 150.32615514 -0.09307451 155.84827858 -0.10361987 C161.03973327 -0.11326243 166.23110071 -0.11340661 171.42255837 -0.10610324 C173.33260083 -0.1050526 175.24264861 -0.10744844 177.15268189 -0.1134637 C179.75100588 -0.12111928 182.3490237 -0.11658195 184.94734055 -0.10883266 C186.09319049 -0.116548 186.09319049 -0.116548 187.26218891 -0.12441921 C192.46969494 -0.08986572 192.46969494 -0.08986572 194.69796616 2.1384055 C194.94520432 4.60532445 194.94520432 4.60532445 194.94088608 7.74973363 C194.94396271 8.92435155 194.94703934 10.09896947 194.9502092 11.30918187 C194.93943093 13.22011632 194.93943093 13.22011632 194.92843491 15.1696555 C194.92797669 16.47164891 194.92751847 17.77364232 194.92704636 19.11509007 C194.9254813 21.87242775 194.91719025 24.62963563 194.90377671 27.38694066 C194.88678679 30.92460694 194.88296237 34.46213051 194.88372189 37.99983281 C194.88338485 41.36895956 194.87454767 44.73803932 194.86593491 48.1071555 C194.86482208 49.3811118 194.86370926 50.6550681 194.86256272 51.96762913 C194.85618286 53.14224705 194.84980301 54.31686497 194.84322983 55.52707738 C194.83941803 56.56473241 194.83560623 57.60238744 194.83167893 58.67148656 C194.69796616 61.1384055 194.69796616 61.1384055 193.69796616 63.1384055 C170.92796616 63.1384055 148.15796616 63.1384055 124.69796616 63.1384055 C124.77015366 68.60918675 124.84234116 74.079968 124.91671616 79.7165305 C125.64950873 139.80262157 125.81121625 199.88511587 125.82079679 259.97515565 C125.82209033 267.56501511 125.82585825 275.1548707 125.83053452 282.74472874 C125.83666477 293.09726879 125.83663102 303.4497957 125.83228546 313.80233639 C125.83080402 317.68303781 125.83152565 321.56372927 125.83412415 325.44443005 C125.83698337 329.94907318 125.83509259 334.4536883 125.82933575 338.95832843 C125.82802966 340.60552028 125.82843538 342.25271448 125.83063847 343.89990538 C125.8333447 346.13138043 125.8299728 348.36276232 125.8249498 350.59423131 C125.82438426 352.46590143 125.82438426 352.46590143 125.8238073 354.37538308 C125.69796616 357.1384055 125.69796616 357.1384055 124.69796616 358.1384055 C122.80097767 358.23756345 120.90027829 358.26639864 119.00070053 358.26780003 C117.78273789 358.27095219 116.56477524 358.27410435 115.30990463 358.27735204 C113.97050811 358.27556225 112.63111191 358.2735113 111.29171616 358.271218 C109.92790576 358.2718911 108.56409548 358.27286117 107.20028549 358.27411717 C104.33866095 358.27559388 101.47706756 358.27344047 98.61544663 358.2687766 C94.93978002 358.26307931 91.26418642 358.26635846 87.58852249 358.27234906 C84.77134512 358.27595541 81.95418518 358.27481575 79.1370073 358.27222127 C77.78136553 358.2715522 76.4257222 358.27237971 75.07008225 358.27470082 C73.17846572 358.27722851 71.28684367 358.27269564 69.39523178 358.26780003 C67.77759934 358.26660664 67.77759934 358.26660664 66.12728745 358.26538914 C63.69796616 358.1384055 63.69796616 358.1384055 62.69796616 357.1384055 C62.60098146 355.56934657 62.57424966 353.99590399 62.57491833 352.42385072 C62.57292728 351.39774137 62.57093623 350.37163202 62.56888485 349.31442845 C62.57179769 348.17340249 62.57471053 347.03237653 62.57771164 345.85677403 C62.57685722 344.65535521 62.57600279 343.45393639 62.57512248 342.21611094 C62.57375427 338.86628605 62.57690182 335.51651885 62.58190054 332.1667009 C62.58620166 328.56000447 62.58475885 324.95330995 62.58399826 321.34661168 C62.58347281 315.09276149 62.58662181 308.8389217 62.5922361 302.58507413 C62.60034826 293.5429571 62.60296603 284.50084513 62.60422409 275.45872486 C62.60641506 260.79001855 62.61307636 246.12131779 62.62252671 231.45261449 C62.63169967 217.19968508 62.63878107 202.94675718 62.64303452 188.69382542 C62.64329724 187.81591145 62.64355996 186.93799747 62.64383065 186.03348004 C62.64513565 181.62943374 62.64639936 177.22538742 62.64764255 172.8213411 C62.65801656 136.26035764 62.67645561 99.69938444 62.69796616 63.1384055 C39.92796616 63.1384055 17.15796616 63.1384055 -6.30203384 63.1384055 C-6.32265884 52.9290305 -6.34328384 42.7196555 -6.36453384 32.2009055 C-6.37363785 28.97317357 -6.38274185 25.74544163 -6.39212173 22.41989964 C-6.39504061 19.8794541 -6.39758923 17.3390081 -6.39969009 14.79856175 C-6.40230346 14.13432698 -6.40491684 13.47009221 -6.4076094 12.78572911 C-6.41489072 10.83827693 -6.41537225 8.89080293 -6.41555923 6.94333714 C-6.41777984 5.84413441 -6.42000046 4.74493169 -6.42228836 3.61241978 C-6.20216008 -0.91631235 -3.989298 0.01862974 0 0 Z " fill="#F5F5F5" transform="translate(1736.30203384161,186.8615944981575)"/>
<path d="M0 0 C0.33 0 0.66 0 1 0 C3.75899171 16.02563267 6.08274167 32.09284223 8.23046875 48.2109375 C8.45197079 49.86808467 8.67348786 51.52522984 8.89501953 53.18237305 C9.33364542 56.46456657 9.76754569 59.74733913 10.19873047 63.03051758 C11.36059555 72.03293505 11.36059555 72.03293505 13 80.95703125 C14.65455788 88.7138566 15.44581655 96.63720234 16.4375 104.5 C17.75696811 114.96008605 19.17578421 125.37621055 20.95481873 135.76904297 C21.96011736 141.66261188 22.7801792 147.56461636 23.5 153.5 C24.26600882 159.61380029 25.06634463 165.70696299 26.13305664 171.77636719 C27.89841969 181.94501895 28.90585545 191.60562682 30 202 C9.87 202 -10.26 202 -31 202 C-31 191.87640833 -31 191.87640833 -30.24072266 187.39428711 C-29.98824516 185.86952759 -29.98824516 185.86952759 -29.73066711 184.31396484 C-29.54368759 183.22937988 -29.35670807 182.14479492 -29.1640625 181.02734375 C-28.96930832 179.86033936 -28.77455414 178.69333496 -28.57389832 177.4909668 C-28.04156282 174.30492623 -27.50320541 171.11996857 -26.9628334 167.93528366 C-26.03546953 162.4513014 -25.12789823 156.96397892 -24.21740913 151.47717476 C-23.98026589 150.0485178 -23.74287125 148.61990256 -23.50523186 147.19132805 C-20.83292793 131.12345201 -18.30969903 115.03337663 -15.8125 98.9375 C-14.9859818 93.61453601 -14.15900268 88.29164359 -13.33203125 82.96875 C-13.13411987 81.69410889 -12.9362085 80.41946777 -12.7322998 79.10620117 C-11.46794723 70.97421649 -10.18613709 62.84520343 -8.88671875 54.71875 C-8.72363724 53.69850235 -8.56055573 52.6782547 -8.39253235 51.62709045 C-7.64990166 46.98584353 -6.9045108 42.34505817 -6.15551758 37.70483398 C-4.35971355 26.5366229 -2.7321587 15.36392355 -1.4375 4.125 C-1 1 -1 1 0 0 Z " fill="#F2F2F2" transform="translate(368,267)"/>
</svg>
